<svg xmlns="http://www.w3.org/2000/svg" width="512" height="512" viewBox="0 0 512 512">
  <!-- Background -->
  <rect width="512" height="512" rx="100" fill="#f8f8f8"/>

  <!-- Jindo dog face -->
  <!-- Left ear -->
  <polygon points="145,210 185,120 220,215" fill="#c4a882"/>
  <polygon points="155,208 185,138 212,212" fill="#d4bc9a"/>
  <!-- Right ear -->
  <polygon points="367,210 327,120 292,215" fill="#c4a882"/>
  <polygon points="357,208 327,138 300,212" fill="#d4bc9a"/>

  <!-- Head -->
  <ellipse cx="256" cy="280" rx="105" ry="95" fill="#d4bc9a"/>
  <!-- Face center stripe -->
  <ellipse cx="256" cy="270" rx="40" ry="75" fill="#e8dcc8"/>
  <!-- Muzzle -->
  <ellipse cx="256" cy="310" rx="45" ry="35" fill="#e8dcc8"/>

  <!-- Eyes -->
  <ellipse cx="215" cy="265" rx="13" ry="14" fill="#2c1810"/>
  <ellipse cx="297" cy="265" rx="13" ry="14" fill="#2c1810"/>
  <!-- Eye shine -->
  <circle cx="219" cy="260" r="4.5" fill="white"/>
  <circle cx="301" cy="260" r="4.5" fill="white"/>

  <!-- Nose -->
  <ellipse cx="256" cy="305" rx="18" ry="13" fill="#2c1810"/>
  <ellipse cx="256" cy="302" rx="6" ry="3" fill="#5c4033"/>

  <!-- Mouth -->
  <path d="M245,316 Q256,328 267,316" fill="none" stroke="#2c1810" stroke-width="2.5" stroke-linecap="round"/>

  <!-- Cheeks -->
  <circle cx="188" cy="295" r="16" fill="#e8b4b8" opacity="0.35"/>
  <circle cx="324" cy="295" r="16" fill="#e8b4b8" opacity="0.35"/>

  <!-- Graduation cap -->
  <!-- Cap base -->
  <path d="M150,195 L256,155 L362,195 L256,225 Z" fill="#1e293b"/>
  <!-- Cap top -->
  <rect x="220" y="145" width="72" height="18" rx="2" fill="#1e293b"/>
  <!-- Cap button -->
  <circle cx="256" cy="155" r="6" fill="#1e293b"/>
  <!-- Tassel string -->
  <path d="M256,155 Q280,150 310,175" fill="none" stroke="#f59e0b" stroke-width="3" stroke-linecap="round"/>
  <!-- Tassel -->
  <rect x="305" y="175" width="4" height="25" rx="2" fill="#f59e0b"/>
  <rect x="300" y="200" width="14" height="6" rx="3" fill="#f59e0b"/>
</svg>
